<svg xmlns="http://www.w3.org/2000/svg" viewBox="0 0 281 80" width="281" height="80" role="img" aria-label="right agent">
  <g transform="translate(0,10) scale(0.6)">
    <path d="M14 42 L48 22 Q56 18 62 22 L84 36" stroke="#E8632A" stroke-width="8.5" stroke-linecap="round" fill="none"/>
    <path d="M14 58 L48 78 Q56 82 62 78 L84 64" stroke="#E8632A" stroke-width="8.5" stroke-linecap="round" fill="none"/>
    <rect x="8" y="38" width="11" height="24" rx="5.5" fill="#E8632A"/>
    <path d="M38 50 L46 58 L64 40" stroke="#fff" stroke-width="7" stroke-linecap="round" stroke-linejoin="round" fill="none"/>
  </g>
  <g transform="translate(80, 24)">
    <path d="M7.52 34.88L2.25 34.88L2.25 15.22L7.35 15.22L7.35 18.65L7.56 18.65Q8.10 16.84 9.38 15.90Q10.65 14.96 12.30 14.96L12.30 14.96Q13.20 14.96 14.01 15.13L14.01 15.13L14.01 19.85Q13.66 19.74 12.98 19.66Q12.30 19.58 11.72 19.58L11.72 19.58Q9.90 19.58 8.71 20.72Q7.52 21.87 7.52 23.70L7.52 23.70L7.52 34.88ZM21.28 34.88L16.01 34.88L16.01 15.22L21.28 15.22L21.28 34.88ZM18.65 12.66L18.65 12.66Q17.45 12.66 16.61 11.87Q15.76 11.07 15.76 9.95L15.76 9.95Q15.76 8.82 16.61 8.03Q17.45 7.24 18.65 7.24L18.65 7.24Q19.84 7.24 20.69 8.03Q21.55 8.82 21.55 9.95L21.55 9.95Q21.55 11.07 20.69 11.87Q19.84 12.66 18.65 12.66ZM33.60 42.64L33.60 42.64Q29.91 42.64 27.66 41.29Q25.41 39.94 24.76 37.83L24.76 37.83L29.30 36.56Q29.66 37.39 30.66 38.10Q31.65 38.81 33.57 38.81L33.57 38.81Q35.57 38.81 36.73 37.89Q37.89 36.97 37.89 35.02L37.89 35.02L37.89 31.39L37.49 31.39Q36.94 32.59 35.69 33.59Q34.43 34.59 32.04 34.59L32.04 34.59Q29.82 34.59 28.01 33.56Q26.20 32.52 25.12 30.39Q24.04 28.27 24.04 25.01L24.04 25.01Q24.04 21.69 25.14 19.46Q26.24 17.23 28.06 16.10Q29.88 14.98 32.06 14.98L32.06 14.98Q33.71 14.98 34.83 15.54Q35.96 16.10 36.65 16.93Q37.35 17.75 37.70 18.53L37.70 18.53L37.93 18.53L37.93 15.22L43.11 15.22L43.11 34.72Q43.11 37.37 41.89 39.14Q40.67 40.90 38.52 41.77Q36.36 42.64 33.60 42.64ZM33.69 30.59L33.69 30.59Q35.71 30.59 36.81 29.10Q37.91 27.62 37.91 24.98L37.91 24.98Q37.91 22.36 36.82 20.78Q35.73 19.20 33.69 19.20L33.69 19.20Q31.62 19.20 30.53 20.82Q29.45 22.45 29.45 24.98L29.45 24.98Q29.45 27.56 30.54 29.07Q31.63 30.59 33.69 30.59ZM51.99 23.50L51.99 23.50L51.99 34.88L46.71 34.88L46.71 8.68L51.88 8.68L51.88 18.98Q52.74 17.07 54.22 16.02Q55.69 14.98 57.87 14.98L57.87 14.98Q60.93 14.98 62.79 16.95Q64.64 18.91 64.64 22.38L64.64 22.38L64.64 34.88L59.35 34.88L59.35 23.29Q59.35 21.46 58.41 20.43Q57.47 19.39 55.80 19.39L55.80 19.39Q54.11 19.39 53.05 20.47Q51.99 21.55 51.99 23.50ZM74.31 15.22L77.98 15.22L77.98 19.25L74.31 19.25L74.31 29.13Q74.31 30.96 76.10 30.96L76.10 30.96Q76.40 30.96 76.93 30.88Q77.47 30.80 77.77 30.73L77.77 30.73L78.53 34.68Q77.65 34.95 76.78 35.05Q75.91 35.16 75.11 35.16L75.11 35.16Q72.16 35.16 70.60 33.72Q69.03 32.29 69.03 29.58L69.03 29.58L69.03 19.25L66.33 19.25L66.33 15.22L69.03 15.22L69.03 10.55L74.31 10.55L74.31 15.22Z" fill="#E8632A"/>
    <g transform="translate(78.2578125, 0)"><path d="M15.36 35.26L15.36 35.26Q12.55 35.26 10.68 33.78Q8.82 32.29 8.82 29.37L8.82 29.37Q8.82 27.18 9.88 25.93Q10.93 24.68 12.62 24.10Q14.31 23.52 16.24 23.34L16.24 23.34Q18.77 23.10 19.89 22.83Q21.00 22.55 21.00 21.59L21.00 21.59L21.00 21.50Q21.00 20.25 20.20 19.56Q19.40 18.88 17.93 18.88L17.93 18.88Q16.40 18.88 15.47 19.54Q14.53 20.20 14.22 21.15L14.22 21.15L9.38 20.34Q10.14 17.79 12.40 16.38Q14.66 14.98 17.94 14.98L17.94 14.98Q20.05 14.98 21.96 15.64Q23.87 16.31 25.07 17.78Q26.28 19.25 26.28 21.64L26.28 21.64L26.28 34.88L21.28 34.88L21.28 32.15L21.11 32.15Q20.39 33.52 18.96 34.39Q17.54 35.26 15.36 35.26ZM16.85 31.55L16.85 31.55Q18.70 31.55 19.87 30.48Q21.04 29.41 21.04 27.84L21.04 27.84L21.04 25.72Q20.72 25.95 20.01 26.11Q19.30 26.28 18.51 26.41Q17.72 26.54 17.14 26.61L17.14 26.61Q15.68 26.82 14.78 27.44Q13.88 28.05 13.88 29.23L13.88 29.23Q13.88 30.38 14.72 30.96Q15.55 31.55 16.85 31.55ZM38.61 42.64L38.61 42.64Q34.92 42.64 32.67 41.29Q30.42 39.94 29.77 37.83L29.77 37.83L34.31 36.56Q34.67 37.39 35.67 38.10Q36.66 38.81 38.58 38.81L38.58 38.81Q40.58 38.81 41.74 37.89Q42.90 36.97 42.90 35.02L42.90 35.02L42.90 31.39L42.50 31.39Q41.95 32.59 40.70 33.59Q39.44 34.59 37.05 34.59L37.05 34.59Q34.83 34.59 33.02 33.56Q31.21 32.52 30.13 30.39Q29.05 28.27 29.05 25.01L29.05 25.01Q29.05 21.69 30.15 19.46Q31.25 17.23 33.07 16.10Q34.89 14.98 37.07 14.98L37.07 14.98Q38.72 14.98 39.84 15.54Q40.97 16.10 41.66 16.93Q42.36 17.75 42.71 18.53L42.71 18.53L42.94 18.53L42.94 15.22L48.12 15.22L48.12 34.72Q48.12 37.37 46.90 39.14Q45.68 40.90 43.53 41.77Q41.37 42.64 38.61 42.64ZM38.70 30.59L38.70 30.59Q40.72 30.59 41.82 29.10Q42.92 27.62 42.92 24.98L42.92 24.98Q42.92 22.36 41.83 20.78Q40.74 19.20 38.70 19.20L38.70 19.20Q36.63 19.20 35.54 20.82Q34.46 22.45 34.46 24.98L34.46 24.98Q34.46 27.56 35.55 29.07Q36.64 30.59 38.70 30.59ZM60.60 35.26L60.60 35.26Q57.59 35.26 55.41 34.03Q53.23 32.80 52.06 30.53Q50.90 28.27 50.90 25.15L50.90 25.15Q50.90 22.11 52.06 19.83Q53.23 17.54 55.35 16.26Q57.47 14.98 60.34 14.98L60.34 14.98Q62.90 14.98 64.99 16.07Q67.09 17.16 68.32 19.37Q69.56 21.59 69.56 24.94L69.56 24.94L69.56 26.42L56.12 26.42Q56.20 28.83 57.45 30.06Q58.70 31.29 60.69 31.29L60.69 31.29Q62.08 31.29 63.07 30.70Q64.06 30.11 64.48 28.97L64.48 28.97L69.26 29.87Q68.54 32.31 66.29 33.79Q64.03 35.26 60.60 35.26ZM56.15 23.12L56.15 23.12L64.48 23.12Q64.29 21.20 63.25 20.07Q62.22 18.95 60.39 18.95L60.39 18.95Q58.49 18.95 57.40 20.12Q56.31 21.29 56.15 23.12ZM77.54 23.50L77.54 23.50L77.54 34.88L72.27 34.88L72.27 15.22L77.24 15.22L77.31 19.28Q78.14 17.23 79.65 16.10Q81.16 14.98 83.43 14.98L83.43 14.98Q86.49 14.98 88.33 16.95Q90.18 18.91 90.18 22.38L90.18 22.38L90.18 34.88L84.91 34.88L84.91 23.29Q84.91 21.46 83.97 20.43Q83.03 19.39 81.36 19.39L81.36 19.39Q79.67 19.39 78.60 20.47Q77.54 21.55 77.54 23.50ZM99.86 15.22L103.54 15.22L103.54 19.25L99.86 19.25L99.86 29.13Q99.86 30.96 101.65 30.96L101.65 30.96Q101.95 30.96 102.49 30.88Q103.03 30.80 103.32 30.73L103.32 30.73L104.08 34.68Q103.20 34.95 102.33 35.05Q101.46 35.16 100.67 35.16L100.67 35.16Q97.72 35.16 96.15 33.72Q94.59 32.29 94.59 29.58L94.59 29.58L94.59 19.25L91.88 19.25L91.88 15.22L94.59 15.22L94.59 10.55L99.86 10.55L99.86 15.22Z" fill="#666666"/></g>
  </g>
</svg>
